<svg width="102" height="36" xmlns="http://www.w3.org/2000/svg" id="h-logo" fill="currentColor" fill-rule="evenodd"><style>#h-logo .contlt{animation:ispin 15s linear infinite;transform-origin:center;transform-box:fill-box}@keyframes ispin{100%{transform:rotate(360deg)}}</style><path d="M44.833 2.976A2.97 2.97 0 0 1 47.81 0a2.97 2.97 0 0 1 2.975 2.976 2.97 2.97 0 0 1-2.975 2.976 2.97 2.97 0 0 1-2.977-2.976ZM28.458 7.631a17.519 17.519 0 0 0-3.294 9.915 4.152 4.152 0 0 1 2.96-.389 14.587 14.587 0 0 1 2.4-7.333 4.162 4.162 0 0 1-2.066-2.193Zm20.89 23.454a14.612 14.612 0 0 1-6.536 1.536h-.178c-.226 0-.449-.011-.67-.024a4.127 4.127 0 0 1-.792 2.894l1.425.075h.216c2.95.003 5.853-.739 8.441-2.156a4.162 4.162 0 0 1-1.906-2.325ZM36.238 4.752a14.62 14.62 0 0 1 6.566-1.543h.18l.684.024a4.127 4.127 0 0 1 .928-2.878 17.623 17.623 0 0 0-10.292 2.086c.91.502 1.6 1.326 1.933 2.311Zm21.25 14.087a14.609 14.609 0 0 1-2.428 7.205 4.168 4.168 0 0 1 2.072 2.18 17.547 17.547 0 0 0 3.323-9.866 4.163 4.163 0 0 1-2.968.481Zm-27.83 5.651a4.132 4.132 0 0 1-2.87.83 17.775 17.775 0 0 0 6.9 7.7v-.048a4.126 4.126 0 0 1 1.085-2.747 14.812 14.812 0 0 1-5.115-5.735Zm26.323-13.112a4.121 4.121 0 0 1 2.92-.708 17.77 17.77 0 0 0-6.949-7.847v.2a4.13 4.13 0 0 1-1 2.652 14.8 14.8 0 0 1 5.03 5.703Zm-.606 3.403a2.97 2.97 0 0 1 2.977-2.976 2.97 2.97 0 0 1 2.975 2.976 2.97 2.97 0 0 1-2.975 2.976 2.97 2.97 0 0 1-2.977-2.976Zm-4.913 15.016a2.97 2.97 0 0 1 2.976-2.976 2.97 2.97 0 0 1 2.976 2.976 2.97 2.97 0 0 1-2.976 2.976 2.97 2.97 0 0 1-2.976-2.976Zm-15.6 3.227a2.97 2.97 0 0 1 2.975-2.976 2.97 2.97 0 0 1 2.976 2.976A2.97 2.97 0 0 1 37.837 36a2.97 2.97 0 0 1-2.976-2.976ZM24.319 21.189a2.97 2.97 0 0 1 2.977-2.976 2.97 2.97 0 0 1 2.975 2.976 2.97 2.97 0 0 1-2.976 2.976 2.97 2.97 0 0 1-2.976-2.976Zm5.158-15.111a2.97 2.97 0 0 1 2.976-2.976 2.97 2.97 0 0 1 2.976 2.976 2.97 2.97 0 0 1-2.976 2.976 2.97 2.97 0 0 1-2.976-2.976Z" fill-rule="nonzero" class="contlt" fill="var(--color-eom-verde)" /><path d="M64.243 1.23c.028-.277.145-.537.334-.74a1.05 1.05 0 0 1 .81-.309h8.245a1.109 1.109 0 0 1 1.144.905l6.481 21.637 6.53-21.637c.146-.547.65-.922 1.216-.905h8.15c.286 0 .562.107.774.3.225.189.366.459.393.751l1.7 16.645 1.7 16.644v.12c0 .62-.35.93-1.048.93h-6.737a1 1 0 0 1-1.144-1.05L90.717 16.1l-5.36 18.537a1.339 1.339 0 0 1-.347.572.816.816 0 0 1-.583.334H78.16a.9.9 0 0 1-.608-.322c-.179-.15-.3-.356-.346-.584l-5.36-18.491-2.074 18.372c-.032.699-.42 1.048-1.168 1.05h-6.743a.916.916 0 0 1-1.025-1.05L64.243 1.23ZM.003 1.277a1.138 1.138 0 0 1 .273-.8 1 1 0 0 1 .774-.3h23.64c.304-.018.6.096.813.313.2.23.302.527.286.831v5.892a1.24 1.24 0 0 1-.286.773.994.994 0 0 1-.834.368H9.225v5.909H21.14c.267-.01.53.065.751.215a.821.821 0 0 1 .3.715v5.147a.988.988 0 0 1-.262.643.942.942 0 0 1-.763.31H9.225v6.1h16.013a.957.957 0 0 1 1.072 1.093v5.988a1.087 1.087 0 0 1-1.167 1.093H1.05a1.111 1.111 0 0 1-.762-.251.975.975 0 0 1-.285-.774V1.277Z" /></svg>